<?xml version="1.0" encoding="UTF-8"?>
<svg id="Layer_2" data-name="Layer 2" xmlns="http://www.w3.org/2000/svg" viewBox="0 0 826.98 836.74">
  <defs>
    <style>
      .cls-1 {
        fill: #333;
      }
    </style>
  </defs>
  <g id="Layer_1-2" data-name="Layer 1">
    <path class="cls-1" d="M805.77,304C755.39,130.9,594.14,10,413.64,10S71.91,130.9,21.52,304l-9.6-2.79c12.51-42.99,31.81-83.52,57.37-120.49,25.19-36.43,55.84-68.52,91.09-95.37,35.64-27.15,75.1-48.26,117.3-62.75C321.33,7.6,367.07,0,413.64,0s92.32,7.6,135.96,22.59c42.2,14.49,81.66,35.6,117.3,62.75,35.26,26.85,65.9,58.94,91.09,95.37,25.56,36.96,44.86,77.5,57.37,120.49l-9.6,2.79Z"/>
    <path class="cls-1" d="M689.6,304.51c-14.96-36.28-36.82-68.95-64.97-97.11-56.36-56.36-131.29-87.4-210.98-87.4s-154.62,31.04-210.97,87.4c-28.16,28.16-50.02,60.83-64.97,97.11l-9.25-3.81c15.46-37.5,38.05-71.27,67.15-100.37,58.25-58.25,135.68-90.32,218.05-90.32s159.81,32.08,218.06,90.32c29.09,29.1,51.68,62.87,67.15,100.37l-9.24,3.81Z"/>
    <path class="cls-1" d="M413.64,726.74c-82.36,0-159.8-32.08-218.05-90.32-29.21-29.2-51.87-63.13-67.35-100.85l9.25-3.8c14.97,36.49,36.9,69.31,65.17,97.57,56.36,56.36,131.28,87.4,210.98,87.4s154.63-31.04,210.98-87.4c28.28-28.28,50.2-61.1,65.17-97.57l9.25,3.8c-15.47,37.7-38.13,71.63-67.35,100.85-58.25,58.25-135.69,90.32-218.06,90.32Z"/>
    <path class="cls-1" d="M413.64,836.74c-46.62,0-92.4-7.61-136.08-22.63-42.23-14.52-81.72-35.67-117.37-62.86-35.27-26.9-65.92-59.04-91.1-95.53-25.55-37.02-44.83-77.62-57.31-120.66l9.6-2.78c50.25,173.38,211.56,294.46,392.26,294.46s342.01-121.09,392.27-294.46l9.6,2.78c-12.48,43.04-31.76,83.64-57.31,120.66-25.18,36.49-55.83,68.63-91.11,95.53-35.66,27.19-75.15,48.34-117.38,62.86-43.68,15.02-89.46,22.63-136.08,22.63Z"/>
    <g>
      <path class="cls-1" d="M242.83,143.03l-45.91-47.71,7.81-4.66,37.57,40.13.48-.29-17.45-52.13,7.65-4.56,20.15,63.07-10.31,6.15Z"/>
      <path class="cls-1" d="M300.33,114.54l-10.01-13.69-16.77,7.03,2.84,16.7-8.13,3.41-10.34-65.6,11.24-4.71,39.47,53.38-8.3,3.48ZM267.32,68.82l-.52.22,5.45,31.16,13.48-5.66-18.41-25.72Z"/>
      <path class="cls-1" d="M319.08,108.24l-16.52-62.34,8.61-2.28,14.5,54.73,18.76-4.97,2.02,7.61-27.36,7.25Z"/>
      <path class="cls-1" d="M357.09,99.05l-8.38-63.94,30.48-4,1,7.62-21.75,2.85,2.64,20.17,18.87-2.47,1,7.62-18.87,2.47,2.74,20.91,21.75-2.85,1,7.62-30.48,4Z"/>
      <path class="cls-1" d="M436.51,95.11l-6.93-50.38-.47-.02-11.06,49.64-11.52-.48-8.39-64.89,8.9.37,5.87,53.25.66.03,11.46-52.53,10.11.42,7.28,53.31.47.02,10.05-52.59,8.8.36-13.71,63.98-11.52-.48Z"/>
      <path class="cls-1" d="M473.23,97.73c-2.2-2.29-3.19-5.61-2.98-9.95.22-4.34,1.43-11.35,3.63-21.04,2.2-9.69,4.15-16.54,5.83-20.54,1.68-4.01,4.01-6.57,6.99-7.69,2.98-1.12,7.48-.99,13.52.38,6.03,1.37,10.15,3.21,12.35,5.5,2.2,2.3,3.19,5.61,2.98,9.95-.22,4.34-1.43,11.35-3.63,21.04-2.2,9.69-4.15,16.54-5.83,20.54-1.68,4.01-4.01,6.57-6.99,7.69-2.98,1.12-7.48.99-13.52-.38-6.03-1.37-10.15-3.21-12.35-5.5ZM494.75,96.09c1.5-.56,2.83-2.38,3.99-5.49,1.15-3.1,2.68-8.83,4.58-17.18,1.9-8.35,3-14.17,3.3-17.47.3-3.3-.11-5.52-1.22-6.67-1.12-1.15-3.41-2.12-6.88-2.91-3.47-.79-5.95-.9-7.42-.34-1.47.56-2.79,2.38-3.93,5.45-1.15,3.07-2.68,8.81-4.59,17.22-1.91,8.41-3.02,14.25-3.31,17.51-.29,3.27.1,5.47,1.19,6.61,1.09,1.15,3.36,2.11,6.84,2.9,3.47.79,5.96.91,7.47.35Z"/>
      <path class="cls-1" d="M523.1,111.12c-1.81-2.62-2.26-6.05-1.35-10.3.91-4.25,3.22-10.98,6.93-20.2,3.72-9.21,6.72-15.67,9.02-19.36,2.3-3.69,5-5.85,8.12-6.48,3.12-.63,7.54.21,13.28,2.53,5.74,2.31,9.51,4.78,11.32,7.4,1.81,2.62,2.26,6.05,1.35,10.3-.91,4.25-3.22,10.98-6.93,20.2-3.72,9.21-6.72,15.67-9.02,19.36-2.3,3.69-5,5.85-8.12,6.48-3.12.63-7.54-.21-13.28-2.53-5.74-2.31-9.51-4.78-11.32-7.4ZM544.61,112.92c1.57-.31,3.18-1.9,4.81-4.78,1.63-2.88,4.05-8.29,7.25-16.23,3.2-7.94,5.21-13.51,6.04-16.72.82-3.21.77-5.47-.15-6.78-.92-1.31-3.03-2.64-6.33-3.97-3.3-1.33-5.73-1.84-7.27-1.52-1.54.32-3.13,1.91-4.75,4.76-1.62,2.85-4.04,8.27-7.27,16.27-3.23,8-5.24,13.59-6.05,16.76-.81,3.18-.77,5.42.12,6.72.89,1.3,2.99,2.62,6.29,3.95,3.3,1.33,5.74,1.84,7.31,1.54Z"/>
      <path class="cls-1" d="M598.3,76.15l13.67,8.19c5.47,3.28,8.93,6.34,10.4,9.18,1.46,2.84,1.45,6.24-.04,10.19-1.49,3.95-4.76,10.13-9.81,18.55-5.04,8.42-8.96,14.21-11.74,17.39-2.78,3.18-5.77,4.79-8.97,4.84-3.2.05-7.53-1.56-13-4.84l-13.67-8.19,33.15-55.31ZM582.61,132.97c3.22,1.93,5.64,2.89,7.28,2.89,1.64,0,3.47-1.23,5.5-3.7,2.02-2.46,5.19-7.29,9.49-14.47,4.27-7.13,7.03-12.18,8.26-15.16,1.24-2.97,1.47-5.19.7-6.63-.77-1.45-2.77-3.13-5.98-5.06l-5.95-3.57-25.25,42.13,5.95,3.57Z"/>
    </g>
    <g>
      <path class="cls-1" d="M209.29,672.84l16.49,11.91c4.25,3.07,6.55,6.41,6.88,10,.33,3.59-1.08,7.57-4.22,11.93-2.6,3.6-5.22,5.94-7.86,7.04-2.64,1.1-5.49,1.04-8.55-.17l-.22.3c2.51,2.82,3.61,5.67,3.29,8.57-.32,2.89-1.81,6.19-4.48,9.89-3.15,4.36-6.55,7.06-10.21,8.12s-7.87-.13-12.63-3.57l-16.26-11.75,37.77-52.27ZM195.65,731.97c1.42.22,2.77-.13,4.06-1.06,1.28-.92,2.73-2.5,4.34-4.73,2.34-3.24,3.44-5.88,3.29-7.92-.15-2.03-1.57-4.02-4.25-5.96l-7.52-5.44-12.46,17.25,7.52,5.44c1.92,1.39,3.6,2.2,5.02,2.41ZM214.01,708c1.98-.45,4.06-2.17,6.22-5.16,1.57-2.18,2.59-3.99,3.05-5.43.46-1.44.37-2.78-.28-4.02-.65-1.24-1.91-2.54-3.78-3.89l-7.29-5.27-11.91,16.49,7.29,5.27c2.48,1.79,4.71,2.46,6.7,2.01Z"/>
      <path class="cls-1" d="M245.75,771.17l4.09-16.46-16.15-8.37-11,12.88-7.82-4.05,43.73-49.97,10.82,5.61-15.68,64.51-7.99-4.14ZM259.7,716.53l-.5-.26-20.43,24.15,12.98,6.73,7.94-30.62Z"/>
      <path class="cls-1" d="M275.17,783.54l19.48-53.16-12.85-4.71,2.71-7.39,33.97,12.45-2.71,7.39-12.85-4.71-19.48,53.16-8.27-3.03Z"/>
      <path class="cls-1" d="M341.89,802.32l5.9-27.88-18.98-4.02-5.9,27.88-8.62-1.83,13.35-63.09,8.62,1.82-5.78,27.33,18.98,4.02,5.78-27.33,8.71,1.84-13.35,63.09-8.71-1.84Z"/>
      <path class="cls-1" d="M401.68,808.74l-6.07-25.32-.56-.03-10.76-.61-1.42,24.89-8.8-.5,3.67-64.39,20.31,1.16c4.43.25,7.72,1.24,9.88,2.96,2.16,1.72,3.5,3.97,4.03,6.75.53,2.79.67,6.42.41,10.92-.27,4.68-.97,8.5-2.11,11.47-1.14,2.97-3.21,5.03-6.22,6.17l6.91,27.06-9.27-.53ZM399.85,774.84c1.29-.74,2.18-1.93,2.64-3.56.47-1.63.79-4.04.97-7.22.19-3.24.15-5.69-.1-7.33-.25-1.64-.96-2.89-2.13-3.74-1.17-.85-3.1-1.35-5.78-1.5l-9.36-.53-1.38,24.24,9.27.53c2.62.15,4.58-.15,5.87-.89Z"/>
      <path class="cls-1" d="M436.4,806.48c-2.81-1.5-4.78-4.35-5.92-8.54-1.14-4.19-2.16-11.24-3.07-21.13s-1.19-17.01-.83-21.34,1.77-7.49,4.26-9.48c2.48-1.98,6.81-3.26,12.97-3.83,6.16-.57,10.64-.1,13.45,1.4,2.8,1.5,4.78,4.35,5.92,8.54,1.14,4.2,2.16,11.24,3.07,21.13.91,9.89,1.19,17.01.83,21.34-.35,4.33-1.77,7.49-4.26,9.47-2.49,1.99-6.81,3.26-12.97,3.83s-10.64.1-13.45-1.4ZM456.35,798.24c1.26-.99,1.95-3.14,2.09-6.45.13-3.31-.19-9.22-.97-17.75-.78-8.53-1.54-14.4-2.28-17.63-.74-3.23-1.81-5.21-3.23-5.96-1.42-.75-3.9-.96-7.45-.63s-5.93.98-7.16,1.98c-1.23.99-1.91,3.13-2.05,6.4-.14,3.28.19,9.21.98,17.8.79,8.59,1.55,14.48,2.28,17.67.73,3.2,1.79,5.17,3.18,5.92,1.39.75,3.85.96,7.4.64,3.55-.33,5.95-.98,7.21-1.98Z"/>
      <path class="cls-1" d="M495.67,798.47c-3-1.05-5.39-3.56-7.16-7.53-1.77-3.97-3.87-10.77-6.29-20.41s-3.79-16.62-4.1-20.96c-.32-4.33.6-7.67,2.75-10.02,2.15-2.34,6.22-4.27,12.23-5.78,6-1.51,10.5-1.73,13.5-.69,3,1.05,5.39,3.56,7.16,7.53,1.77,3.97,3.86,10.77,6.28,20.41,2.42,9.64,3.79,16.62,4.1,20.96.32,4.33-.6,7.67-2.75,10.02-2.15,2.34-6.23,4.27-12.23,5.78-6,1.51-10.5,1.74-13.5.68ZM514.12,787.26c1.09-1.17,1.45-3.41,1.07-6.7-.38-3.29-1.6-9.08-3.69-17.39-2.08-8.3-3.74-13.99-4.96-17.07-1.22-3.08-2.59-4.87-4.11-5.39-1.52-.52-4-.35-7.46.52-3.46.87-5.71,1.89-6.77,3.05-1.06,1.17-1.41,3.38-1.04,6.64.37,3.26,1.6,9.07,3.7,17.43,2.1,8.36,3.76,14.07,4.97,17.11,1.21,3.05,2.57,4.83,4.05,5.36,1.49.53,3.96.36,7.41-.51,3.45-.87,5.73-1.89,6.82-3.07Z"/>
      <path class="cls-1" d="M588.99,767.69l-20.71-46.08-.43.19,9.25,51.23-7.44,3.34-32-41.01-.51.23,20.71,46.08-7.61,3.42-26.44-58.82,11.88-5.34,31.6,40.37.51-.23-9.2-50.43,11.71-5.26,26.44,58.82-7.78,3.5Z"/>
      <path class="cls-1" d="M623.38,748.26c-2.63,1.46-5.02,2.67-7.15,3.64l-4.11-6.16c4.85-2.41,8.81-4.63,11.88-6.68,1.98-1.32,3.45-2.51,4.43-3.57.98-1.06,1.58-2.16,1.81-3.29.21-1.04.03-2.2-.52-3.48-.55-1.28-1.46-2.86-2.7-4.73-1.7-2.55-3.02-4.28-3.96-5.19-.94-.91-1.97-1.32-3.07-1.22-1.1.1-2.74.65-4.93,1.65l-9.36,4.21c-3.12,1.4-5.87,1.3-8.25-.3-2.38-1.6-5.06-4.64-8.04-9.11-3.74-5.62-5.16-10.36-4.25-14.23s3.89-7.49,8.93-10.85c2.18-1.46,4.46-2.8,6.83-4.04,2.37-1.24,4.35-2.13,5.94-2.66l4,6.01c-3.71,1.65-7.28,3.61-10.71,5.9-2.13,1.42-3.69,2.69-4.68,3.8-.99,1.11-1.57,2.21-1.74,3.3-.17,1.09-.02,2.23.47,3.41.48,1.18,1.3,2.63,2.44,4.34,1.46,2.18,2.61,3.69,3.46,4.51.85.82,1.7,1.23,2.56,1.22.86,0,2.06-.38,3.6-1.1l8.84-3.98c2.32-1.02,4.39-1.55,6.2-1.6,1.81-.04,3.7.63,5.68,2.02,1.8,1.35,4.07,4.08,6.81,8.19,2.81,4.21,4.52,7.82,5.13,10.83.61,3.01.23,5.67-1.16,7.98s-3.82,4.63-7.31,6.95c-2.08,1.39-4.44,2.81-7.07,4.26Z"/>
    </g>
    <g>
      <path class="cls-1" d="M10.52,454.34h39.04v9.51H0v-11.38c0-8.36.19-14.33.58-17.94.38-3.6,1.39-6.58,3.03-8.93,1.63-2.35,4.42-4.63,8.36-6.84,3.36-2.11,9.6-5.86,18.73-11.24,3.36-1.92,5.55-4.08,6.55-6.48,1.01-2.4,1.51-6.1,1.51-11.09s-.46-8.38-1.37-10.73c-.91-2.35-2.5-3.96-4.75-4.83-2.26-.86-5.64-1.3-10.16-1.3-5.38,0-12.39.53-21.03,1.58v-8.79c2.88-.67,6.55-1.22,11.02-1.66,4.47-.43,8.72-.65,12.75-.65,5.38,0,9.77.55,13.18,1.66,3.41,1.1,6.12,3.48,8.14,7.13,2.02,3.65,3.03,9.08,3.03,16.28,0,5.47-.41,9.87-1.22,13.18-.82,3.31-2.11,6-3.89,8.07-1.78,2.07-4.25,4.01-7.42,5.83l-20.6,11.96c-2.31,1.35-3.84,2.88-4.61,4.61-.58,1.25-.94,2.95-1.08,5.11-.14,2.16-.22,5.4-.22,9.72v7.2Z"/>
      <path class="cls-1" d="M81.11,461.18c-3.65-2.54-6-7.11-7.06-13.69-1.06-6.58-1.58-17.65-1.58-33.21s.53-26.63,1.58-33.21c1.06-6.58,3.41-11.14,7.06-13.69,3.65-2.54,9.84-3.82,18.58-3.82s15.22,1.27,18.87,3.82c3.65,2.55,5.95,7.01,6.92,13.4.96,6.39,1.44,17.55,1.44,33.49s-.53,26.63-1.58,33.21c-1.06,6.58-3.41,11.14-7.06,13.69-3.65,2.55-9.85,3.82-18.58,3.82s-14.94-1.27-18.58-3.82ZM111,453.33c2.06-1.44,3.43-4.83,4.11-10.16.67-5.33,1.01-14.96,1.01-28.88s-.34-23.55-1.01-28.88c-.67-5.33-2.04-8.72-4.11-10.16-2.07-1.44-5.83-2.16-11.31-2.16s-9.39.72-11.45,2.16c-2.07,1.44-3.41,4.8-4.03,10.08-.63,5.28-.94,14.94-.94,28.96s.31,23.68.94,28.96c.62,5.28,1.97,8.64,4.03,10.08,2.06,1.44,5.88,2.16,11.45,2.16s9.24-.72,11.31-2.16Z"/>
    </g>
    <g>
      <path class="cls-1" d="M718.93,454.34h39.04v9.51h-49.56v-11.38c0-8.36.19-14.33.58-17.94.38-3.6,1.39-6.58,3.03-8.93,1.63-2.35,4.42-4.63,8.36-6.84,3.36-2.11,9.6-5.86,18.73-11.24,3.36-1.92,5.55-4.08,6.55-6.48,1.01-2.4,1.51-6.1,1.51-11.09s-.46-8.38-1.37-10.73c-.91-2.35-2.5-3.96-4.75-4.83-2.26-.86-5.64-1.3-10.16-1.3-5.38,0-12.39.53-21.03,1.58v-8.79c2.88-.67,6.55-1.22,11.02-1.66,4.47-.43,8.72-.65,12.75-.65,5.38,0,9.77.55,13.18,1.66,3.41,1.1,6.12,3.48,8.14,7.13,2.02,3.65,3.03,9.08,3.03,16.28,0,5.47-.41,9.87-1.22,13.18-.82,3.31-2.11,6-3.89,8.07-1.78,2.07-4.25,4.01-7.42,5.83l-20.6,11.96c-2.31,1.35-3.84,2.88-4.61,4.61-.58,1.25-.94,2.95-1.08,5.11-.14,2.16-.22,5.4-.22,9.72v7.2Z"/>
      <path class="cls-1" d="M788.52,464.35c-4.03-.43-7.68-.98-10.95-1.66v-8.79c8.64,1.06,15.56,1.58,20.75,1.58,4.32,0,7.73-.43,10.23-1.3,2.5-.86,4.39-2.59,5.69-5.19s1.94-6.48,1.94-11.67c0-7.01-1.01-11.93-3.03-14.77-2.02-2.83-5.47-4.25-10.37-4.25h-12.97v-9.36h12.97c3.94,0,7.01-1.27,9.22-3.82,2.21-2.54,3.31-7.23,3.31-14.05,0-5.19-.58-9.05-1.73-11.6-1.15-2.54-2.98-4.25-5.47-5.11-2.5-.86-6.1-1.3-10.8-1.3-2.79,0-5.98.17-9.58.5-3.6.34-6.84.75-9.72,1.22v-8.93c3.07-.67,6.63-1.22,10.66-1.66,4.03-.43,7.64-.65,10.8-.65,6.72,0,12.03.89,15.92,2.67,3.89,1.78,6.67,4.56,8.36,8.36,1.68,3.8,2.52,8.81,2.52,15.05,0,7.01-1.08,12.34-3.24,15.99-2.16,3.65-5.35,6.05-9.58,7.2v.58c4.51,1.06,7.9,3.39,10.16,6.99,2.26,3.6,3.39,9.24,3.39,16.93,0,6.34-.75,11.48-2.23,15.41-1.49,3.94-4.25,6.96-8.28,9.08-4.03,2.11-9.75,3.17-17.14,3.17-3.17,0-6.77-.22-10.8-.65Z"/>
    </g>
    <g>
      <path class="cls-1" d="M544.19,301.64c39.27,4.42,61.34,46.78,50.22,83.22-1.84,6.02-5.15,10.68-7.79,16.21,45.39,31.25,41.69,100.65-6.26,127.75-5,2.82-22.14,9.83-27.17,9.83h-72.5c.5-2.72-1.41-10.86,1.64-11.86,17.96-.37,35.93.03,53.9-.19,14.56-.17,22.94-.11,36.48-7.44,47.57-25.77,43.8-94.07-5-116.02,25.64-21.21,23.81-62.66-3.7-81.31-6.3-4.27-18.26-9.19-25.81-9.19h-94.5v226h-12v-237h112.5Z"/>
      <path class="cls-1" d="M220.55,301.78l70.65,216.87c1.72.22,1.98-1.27,2.55-2.45,1.93-4.01,6.29-17.81,5.72-21.8l-61.78-192.75c3.38.55,9.95-1.54,11.85,1.65l55.67,173.35,57.59-174.9,11.9-.1-76.65,237.04h-11.67s-77.66-236.56-77.66-236.56l11.85-.35Z"/>
      <path class="cls-1" d="M480.69,398.64v-12h59.5c1.7,0,9.97-4.93,11.49-6.51,7.85-8.15,7.95-22.2.86-30.84-1.77-2.15-8.9-7.65-11.35-7.65h-69.5v197h-12v-209h83.5c2.64,0,12.59,5.96,14.98,8.02,17,14.71,14.95,44.92-4.78,56.17-2.1,1.2-10.35,4.81-12.19,4.81h-60.5Z"/>
      <path class="cls-1" d="M480.69,510.64v-12h69.5c1.43,0,10.55-4.42,12.41-5.59,29.28-18.37,14.84-66.41-16.41-66.41h-65.5v-12h67.5c20.55,0,40.6,24.09,42.38,43.62,2.25,24.82-18.24,52.38-44.38,52.38h-65.5Z"/>
      <path class="cls-1" d="M402.7,301.64l-76.1,236.89-11.9.1,76.16-235.33c1.94-3.21,8.42-1.11,11.84-1.66Z"/>
    </g>
  </g>
</svg>